<svg xmlns="http://www.w3.org/2000/svg" width="21.916" height="23.755" viewBox="0 0 21.916 23.755">
  <g id="Group_49182" data-name="Group 49182" transform="translate(-127.641 -273.699)">
    <g id="Path_26331" data-name="Path 26331" transform="translate(124 249.809)" fill="#666b7a">
      <path d="M 23.06067657470703 47.49514770507812 L 6.134957313537598 47.49514770507812 C 5.062504291534424 47.49514770507812 3.816365003585815 46.63297271728516 3.808920860290527 45.51963806152344 C 3.794183015823364 45.40238952636719 3.769558429718018 45.05953216552734 3.826727390289307 44.82575607299805 C 4.533827304840088 41.91524505615234 8.958687782287598 33.06527709960938 9.460906982421875 32.06573486328125 L 9.596477508544922 31.79653549194336 L 9.63803768157959 31.7140064239502 L 9.730447769165039 31.7140064239502 L 19.46518707275391 31.7140064239502 L 19.55684661865234 31.7140064239502 L 19.59866714477539 31.79556655883789 L 19.73509788513184 32.0616455078125 C 19.78437805175781 32.15926742553711 24.63007736206055 41.77576446533203 25.37185668945312 44.8239860534668 C 25.42244911193848 45.03113555908203 25.40951347351074 45.33239364624023 25.3876953125 45.62776565551758 C 25.38137626647949 46.72849655151367 24.15773010253906 47.49514770507812 23.06067657470703 47.49514770507812 Z M 5.060341358184814 45.11542510986328 C 5.05645227432251 45.15121078491211 5.058032512664795 45.29862976074219 5.07276725769043 45.44208526611328 L 5.073507308959961 45.44928741455078 L 5.073557376861572 45.45652770996094 C 5.075857639312744 45.84636688232422 5.683267593383789 46.22757720947266 6.134957313537598 46.22757720947266 L 23.06067657470703 46.22757720947266 C 23.55484771728516 46.22757720947266 24.11820793151855 45.8817253112793 24.11820793151855 45.5783576965332 L 24.11820793151855 45.57178497314453 L 24.11877822875977 45.56524658203125 C 24.13862609863281 45.33904647827148 24.13829803466797 45.15351867675781 24.13254356384277 45.10922241210938 C 23.5122184753418 42.5589599609375 19.6553955078125 34.74445343017578 18.7763557434082 32.98062515258789 L 10.41931438446045 32.98157501220703 C 9.540006637573242 34.74699401855469 5.682190895080566 42.56774139404297 5.060341358184814 45.11542510986328 Z" stroke="none"/>
      <path d="M 23.06067657470703 47.34514617919922 C 24.09114646911621 47.34514617919922 25.23577690124512 46.61946487426758 25.23771667480469 45.62189483642578 C 25.25222778320312 45.42645645141602 25.27738761901855 45.06941604614258 25.22610664367676 44.85945510864258 C 24.50042724609375 41.87739562988281 19.8018970489502 32.52679443359375 19.60161781311035 32.13008499145508 L 19.46518707275391 31.86400604248047 L 9.730447769165039 31.86400604248047 L 9.59595775604248 32.13105773925781 C 9.396636962890625 32.52775573730469 4.697147369384766 41.87836456298828 3.972437381744385 44.86138534545898 C 3.91824746131897 45.08296585083008 3.947277307510376 45.42452621459961 3.958887338638306 45.50966644287109 C 3.958887338638306 46.54302597045898 5.128687381744385 47.34514617919922 6.134957313537598 47.34514617919922 L 23.06067657470703 47.34514617919922 M 10.32647705078125 32.83157730102539 C 10.32647705078125 32.83157730102539 10.32647705078125 32.83157730102539 10.32646751403809 32.83158493041992 L 18.8691577911377 32.83061599731445 C 19.65385818481445 34.40291595458984 23.65089797973633 42.48116683959961 24.27981758117676 45.08005523681641 C 24.29046821594238 45.14198684692383 24.28755760192871 45.35774612426758 24.26820755004883 45.5783576965332 C 24.26820755004883 46.00022506713867 23.59187698364258 46.3775749206543 23.06067657470703 46.3775749206543 L 6.134957313537598 46.3775749206543 C 5.618277549743652 46.3775749206543 4.926457405090332 45.94797515869141 4.923557281494141 45.45741653442383 C 4.909047603607178 45.31614685058594 4.904207229614258 45.13714599609375 4.912917613983154 45.08683776855469 C 5.544737339019775 42.48406600952148 9.541777610778809 34.40484619140625 10.32646751403809 32.83158493041992 M 23.06067657470703 47.64514541625977 L 6.134957313537598 47.64514541625977 C 4.971915721893311 47.64514541625977 3.671809196472168 46.74081420898438 3.658982515335083 45.52769088745117 C 3.648545026779175 45.43349838256836 3.614148855209351 45.06358337402344 3.681027412414551 44.79011535644531 C 4.391987323760986 41.86366653442383 8.823867797851562 32.99949645996094 9.326877593994141 31.9983959197998 L 9.545637130737305 31.56400680541992 L 19.64849662780762 31.56400680541992 L 19.86856651306152 31.99320602416992 C 19.91835784912109 32.09181594848633 24.77178764343262 41.72374725341797 25.51759719848633 44.78852462768555 C 25.57279014587402 45.01449203491211 25.56014823913574 45.32777404785156 25.53765487670898 45.63385009765625 C 25.52711486816406 46.81976318359375 24.22670555114746 47.64514541625977 23.06067657470703 47.64514541625977 Z M 5.209163188934326 45.13833618164062 C 5.207046031951904 45.18234634399414 5.209898471832275 45.30903244018555 5.221987247467041 45.42676544189453 L 5.223547458648682 45.45564651489258 C 5.225167274475098 45.72882461547852 5.736237525939941 46.07757568359375 6.134957313537598 46.07757568359375 L 23.06067657470703 46.07757568359375 C 23.51077651977539 46.07757568359375 23.96820831298828 45.75730514526367 23.96820831298828 45.5783576965332 L 23.96935653686523 45.55214691162109 C 23.98665618896484 45.35487365722656 23.98814010620117 45.18580627441406 23.98419189453125 45.13401794433594 C 23.36899375915527 42.62645721435547 19.63294982910156 35.03820419311523 18.68348503112793 33.13063812255859 L 10.51221179962158 33.13156509399414 C 9.562755584716797 35.0402717590332 5.82764196395874 42.63080215454102 5.209163188934326 45.13833618164062 Z" stroke="none" fill="#666b7a"/>
    </g>
    <g id="Path_26332" data-name="Path 26332" transform="translate(107.277 255.874)" fill="#666b7a">
      <path d="M 36.15949630737305 24.98156929016113 L 26.48378753662109 24.98156929016113 C 26.13431739807129 24.98156929016113 25.85000801086426 24.6972599029541 25.85000801086426 24.3477897644043 C 25.85000801086426 23.99831962585449 26.13431739807129 23.7140007019043 26.48378753662109 23.7140007019043 L 36.15949630737305 23.7140007019043 C 36.50896835327148 23.7140007019043 36.79328918457031 23.99831962585449 36.79328918457031 24.3477897644043 C 36.79328918457031 24.6972599029541 36.50896835327148 24.98156929016113 36.15949630737305 24.98156929016113 Z" stroke="none"/>
      <path d="M 36.15949630737305 24.83156967163086 C 36.42558670043945 24.83156967163086 36.64328765869141 24.61483955383301 36.64328765869141 24.3477897644043 C 36.64328765869141 24.08073997497559 36.42558670043945 23.86400032043457 36.15949630737305 23.86400032043457 L 26.48378753662109 23.86400032043457 C 26.21673774719238 23.86400032043457 26.00000762939453 24.08073997497559 26.00000762939453 24.3477897644043 C 26.00000762939453 24.61483955383301 26.21673774719238 24.83156967163086 26.48378753662109 24.83156967163086 L 36.15949630737305 24.83156967163086 M 36.15949630737305 25.13156890869141 L 26.48378753662109 25.13156890869141 C 26.05160713195801 25.13156890869141 25.70000839233398 24.77997016906738 25.70000839233398 24.3477897644043 C 25.70000839233398 23.91560935974121 26.05160713195801 23.56399917602539 26.48378753662109 23.56399917602539 L 36.15949630737305 23.56399917602539 C 36.59167861938477 23.56399917602539 36.94328689575195 23.91560935974121 36.94328689575195 24.3477897644043 C 36.94328689575195 24.77997016906738 36.59167861938477 25.13156890869141 36.15949630737305 25.13156890869141 Z" stroke="none" fill="#666b7a"/>
    </g>
    <g id="Path_26333" data-name="Path 26333" transform="translate(113.584 273.856)" fill="#666b7a">
      <path d="M 24.06586456298828 5.06412410736084 L 24.0465030670166 5.06412410736084 L 22.11136436462402 5.06412410736084 L 22.10392379760742 5.06412410736084 L 22.09651374816895 5.063384056091309 C 21.74647331237793 5.028563976287842 18.65136337280273 4.682224273681641 17.7767333984375 3.26582407951355 C 17.49861335754395 2.816134214401245 17.45401382446289 2.30523419380188 17.64780426025391 1.788454174995422 C 18.05095481872559 0.7151141762733459 19.19846343994141 -0.005995821673423052 20.50326347351074 -0.005995821673423052 C 22.06492614746094 -0.005995821673423052 23.96903800964355 1.087236642837524 24.63694763183594 4.1540207862854 C 24.67865753173828 4.239224910736084 24.70061492919922 4.334276676177979 24.70061492919922 4.430344104766846 C 24.69934463500977 4.780054092407227 24.41459465026855 5.06412410736084 24.06586456298828 5.06412410736084 Z M 20.50132369995117 1.261574149131775 C 19.73383331298828 1.261574149131775 19.04796409606934 1.661964178085327 18.83341407775879 2.235244274139404 C 18.77869415283203 2.381454229354858 18.78462409973145 2.487384080886841 18.85388374328613 2.600914239883423 C 19.23927879333496 3.224724054336548 21.02121162414551 3.676715612411499 22.16854286193848 3.799435615539551 L 23.23339462280273 3.79701042175293 C 22.50014686584473 1.448111891746521 20.96427345275879 1.261574149131775 20.50132369995117 1.261574149131775 Z" stroke="none"/>
      <path d="M 24.06586456298828 4.914124011993408 C 24.33194351196289 4.914124011993408 24.54964447021484 4.697394371032715 24.55061340332031 4.430344104766846 C 24.55061340332031 4.349064350128174 24.53029441833496 4.271664142608643 24.49449348449707 4.204894065856934 C 23.85009384155273 1.215104222297668 22.01847457885742 0.1440041810274124 20.50326347351074 0.1440041810274124 C 19.25993347167969 0.1440041810274124 18.16948318481445 0.826134204864502 17.78825378417969 1.841124176979065 C 17.6111946105957 2.313294172286987 17.65183448791504 2.778694152832031 17.90436363220215 3.187014102935791 C 18.73067474365234 4.525164127349854 21.72240447998047 4.875424385070801 22.11136436462402 4.914124011993408 L 24.0465030670166 4.914124011993408 C 24.05328369140625 4.914124011993408 24.05908393859863 4.914124011993408 24.06586456298828 4.914124011993408 M 20.50132369995117 1.111574172973633 C 21.02575492858887 1.111574172973633 22.70061492919922 1.326374173164368 23.43403434753418 3.946554183959961 L 22.16071319580078 3.949454069137573 C 21.064453125 3.833354234695435 19.16220474243164 3.385364294052124 18.72583389282227 2.679034233093262 C 18.63197326660156 2.52519416809082 18.62230491638184 2.371354103088379 18.69293403625488 2.182674169540405 C 18.92902374267578 1.551814198493958 19.6730842590332 1.111574172973633 20.50132369995117 1.111574172973633 M 24.06586456298828 5.214124202728271 L 22.08166313171387 5.212654113769531 C 21.49825477600098 5.154603958129883 18.54269409179688 4.791734218597412 17.64910316467285 3.344634294509888 C 17.345703125 2.854064226150513 17.29665374755859 2.297674179077148 17.50735473632812 1.73578417301178 C 17.9323844909668 0.604194164276123 19.13632392883301 -0.1559958159923553 20.50326347351074 -0.1559958159923553 C 22.12048149108887 -0.1559958159923553 24.08962440490723 0.9644675850868225 24.77985572814941 4.105350971221924 C 24.82625579833984 4.206500053405762 24.85061454772949 4.317916393280029 24.85061454772949 4.430344104766846 C 24.84904479980469 4.863014221191406 24.49700355529785 5.214124202728271 24.06586456298828 5.214124202728271 Z M 20.50132369995117 1.411574125289917 C 19.79507446289062 1.411574125289917 19.16698455810547 1.771904230117798 18.97390365600586 2.287824153900146 C 18.93064308166504 2.403384208679199 18.9433536529541 2.459554195404053 18.98193359375 2.522784233093262 C 19.30217933654785 3.041135787963867 20.8858642578125 3.510292053222656 22.17633056640625 3.649417161941528 L 23.02595901489258 3.647481918334961 C 22.30245018005371 1.580183744430542 20.92513084411621 1.411574125289917 20.50132369995117 1.411574125289917 Z" stroke="none" fill="#666b7a"/>
    </g>
    <g id="Path_26334" data-name="Path 26334" transform="translate(89.328 273.859)" fill="#666b7a">
      <path d="M 52.09579467773438 5.06109619140625 L 50.16064453125 5.06109619140625 C 49.96842575073242 5.06109619140625 49.78946685791016 4.976306438446045 49.66965484619141 4.828466415405273 C 49.5484733581543 4.682056427001953 49.5003547668457 4.489906311035156 49.53860473632812 4.302486419677734 C 50.17448425292969 1.123046278953552 52.10721588134766 -0.01000368781387806 53.70389556884766 -0.01000368781387806 C 55.00913619995117 -0.01000368781387806 56.15627670288086 0.7111462950706482 56.55840682983398 1.784486293792725 C 56.75343322753906 2.300686359405518 56.70919418334961 2.811726331710815 56.43031692504883 3.261986255645752 C 55.58639526367188 4.628666400909424 52.72747421264648 4.997326374053955 52.16293334960938 5.057346343994141 C 52.14052581787109 5.0598464012146 52.11832427978516 5.06109619140625 52.09579467773438 5.06109619140625 Z M 50.97385406494141 3.793526411056519 L 52.06142044067383 3.793526411056519 C 53.20248413085938 3.666843891143799 54.97213745117188 3.213257074356079 55.35063552856445 2.597456216812134 C 55.42146682739258 2.484816312789917 55.42740631103516 2.379496335983276 55.37195587158203 2.232616424560547 C 55.15725326538086 1.658926367759705 54.47138595581055 1.258536338806152 53.70389556884766 1.258536338806152 C 53.24124526977539 1.258536338806152 51.70647048950195 1.445064425468445 50.97385406494141 3.793526411056519 Z" stroke="none"/>
      <path d="M 52.09579467773438 4.911096096038818 C 52.11321640014648 4.911096096038818 52.12965393066406 4.910126209259033 52.14707565307617 4.908186435699463 C 52.48378372192383 4.872386455535889 55.47648620605469 4.521166324615479 56.30279541015625 3.183006286621094 C 56.55629348754883 2.773726224899292 56.59597396850586 2.308326244354248 56.41793441772461 1.837116360664368 C 56.03767395019531 0.8221362829208374 54.94722366333008 0.1399963051080704 53.70389556884766 0.1399963051080704 C 52.16545486450195 0.1399963051080704 50.3038444519043 1.241096258163452 49.68557357788086 4.332486152648926 C 49.65654373168945 4.474716186523438 49.69330596923828 4.621786117553711 49.78619384765625 4.734026432037354 C 49.87715530395508 4.846266269683838 50.0155143737793 4.911096096038818 50.16064453125 4.911096096038818 L 52.09579467773438 4.911096096038818 M 53.70389556884766 1.10853636264801 C 54.53116607666016 1.10853636264801 55.27619552612305 1.548786282539368 55.51228332519531 2.179636240005493 C 55.58388519287109 2.369286298751831 55.5751838684082 2.522156238555908 55.47842407226562 2.676006317138672 C 55.04785537719727 3.376526355743408 53.16979598999023 3.822576284408569 52.06966400146484 3.943526268005371 L 50.77312469482422 3.943526268005371 C 51.50556564331055 1.32430636882782 53.18043518066406 1.10853636264801 53.70389556884766 1.10853636264801 M 52.09579467773438 5.211096286773682 L 50.16064453125 5.211096286773682 C 49.9229736328125 5.211096286773682 49.70154571533203 5.106056213378906 49.55312347412109 4.922906398773193 C 49.40383529663086 4.742546081542969 49.34425354003906 4.504606246948242 49.39163589477539 4.272496223449707 C 50.04517364501953 1.004716277122498 52.04776382446289 -0.1600036919116974 53.70389556884766 -0.1600036919116974 C 55.07133483886719 -0.1600036919116974 56.27492523193359 0.6002762913703918 56.6988639831543 1.731866359710693 C 56.91084671020508 2.292906284332275 56.86218643188477 2.849596261978149 56.55783462524414 3.340976238250732 C 55.67725372314453 4.767026424407959 52.75554656982422 5.145186424255371 52.17879486083984 5.206506252288818 C 52.15155410766602 5.209546089172363 52.12392425537109 5.211096286773682 52.09579467773438 5.211096286773682 Z M 51.1814079284668 3.643526315689087 L 52.0531120300293 3.643526315689087 C 53.3363151550293 3.499953746795654 54.90815734863281 3.030890941619873 55.22284317016602 2.518916368484497 C 55.25784683227539 2.463236331939697 55.27955627441406 2.412566423416138 55.23162460327148 2.285596370697021 C 55.04130554199219 1.777056336402893 54.39892578125 1.408536314964294 53.70389556884766 1.408536314964294 C 53.28041839599609 1.408536314964294 51.90432739257812 1.57703709602356 51.1814079284668 3.643526315689087 Z" stroke="none" fill="#666b7a"/>
    </g>
    <g id="Path_26336" data-name="Path 26336" transform="translate(92.115 242.228)" fill="#666b7a">
      <path d="M 46.48378753662109 43.94914245605469 C 46.13431930541992 43.94914245605469 45.84999847412109 43.66483306884766 45.84999847412109 43.31536483764648 L 45.84999847412109 42.34778213500977 C 45.84999847412109 41.99831390380859 46.13431930541992 41.71399307250977 46.48378753662109 41.71399307250977 C 46.83325576782227 41.71399307250977 47.11757659912109 41.99831390380859 47.11757659912109 42.34778213500977 L 47.11757659912109 43.31536483764648 C 47.11757659912109 43.66483306884766 46.83325576782227 43.94914245605469 46.48378753662109 43.94914245605469 Z" stroke="none"/>
      <path d="M 46.48378753662109 43.79914474487305 C 46.7498779296875 43.79914474487305 46.96757888793945 43.58241271972656 46.96757888793945 43.31536483764648 L 46.96757888793945 42.34778213500977 C 46.96757888793945 42.08073425292969 46.75083923339844 41.86399459838867 46.48378753662109 41.86399459838867 C 46.21673583984375 41.86399459838867 45.99999618530273 42.08073425292969 45.99999618530273 42.34778213500977 L 45.99999618530273 43.31536483764648 C 45.99999618530273 43.58241271972656 46.21673583984375 43.79914474487305 46.48378753662109 43.79914474487305 M 46.48378753662109 44.09914398193359 C 46.05160903930664 44.09914398193359 45.69999694824219 43.74754333496094 45.69999694824219 43.31536483764648 L 45.69999694824219 42.34778213500977 C 45.69999694824219 41.91560363769531 46.05160903930664 41.56399536132812 46.48378753662109 41.56399536132812 C 46.91596603393555 41.56399536132812 47.267578125 41.91560363769531 47.267578125 42.34778213500977 L 47.267578125 43.31536483764648 C 47.267578125 43.74754333496094 46.91596603393555 44.09914398193359 46.48378753662109 44.09914398193359 Z" stroke="none" fill="#666b7a"/>
    </g>
    <g id="Path_26337" data-name="Path 26337" transform="translate(92.115 214.936)" fill="#666b7a">
      <path d="M 46.48378753662109 79.94914245605469 C 46.13431930541992 79.94914245605469 45.84999847412109 79.66483306884766 45.84999847412109 79.31536102294922 L 45.84999847412109 78.34778594970703 C 45.84999847412109 77.99831390380859 46.13431930541992 77.71399688720703 46.48378753662109 77.71399688720703 C 46.83325576782227 77.71399688720703 47.11757659912109 77.99831390380859 47.11757659912109 78.34778594970703 L 47.11757659912109 79.31536102294922 C 47.11757659912109 79.66483306884766 46.83325576782227 79.94914245605469 46.48378753662109 79.94914245605469 Z" stroke="none"/>
      <path d="M 46.48378753662109 79.79914093017578 C 46.7498779296875 79.79914093017578 46.96757888793945 79.58241271972656 46.96757888793945 79.31536102294922 L 46.96757888793945 78.34778594970703 C 46.96757888793945 78.08073425292969 46.75083923339844 77.86399078369141 46.48378753662109 77.86399078369141 C 46.21673583984375 77.86399078369141 45.99999618530273 78.08073425292969 45.99999618530273 78.34778594970703 L 45.99999618530273 79.31536102294922 C 45.99999618530273 79.58241271972656 46.21673583984375 79.79914093017578 46.48378753662109 79.79914093017578 M 46.48378753662109 80.09914398193359 C 46.05160903930664 80.09914398193359 45.69999694824219 79.74754333496094 45.69999694824219 79.31536102294922 L 45.69999694824219 78.34778594970703 C 45.69999694824219 77.91560363769531 46.05160903930664 77.56399536132812 46.48378753662109 77.56399536132812 C 46.91596603393555 77.56399536132812 47.267578125 77.91560363769531 47.267578125 78.34778594970703 L 47.267578125 79.31536102294922 C 47.267578125 79.74754333496094 46.91596603393555 80.09914398193359 46.48378753662109 80.09914398193359 Z" stroke="none" fill="#666b7a"/>
    </g>
    <g id="Path_26338" data-name="Path 26338" transform="translate(92.115 210.582)" fill="#666b7a">
      <path d="M 46.48378753662109 79.94914245605469 C 46.13431930541992 79.94914245605469 45.84999847412109 79.66483306884766 45.84999847412109 79.31536102294922 L 45.84999847412109 78.34778594970703 C 45.84999847412109 77.99831390380859 46.13431930541992 77.71399688720703 46.48378753662109 77.71399688720703 C 46.83325576782227 77.71399688720703 47.11757659912109 77.99831390380859 47.11757659912109 78.34778594970703 L 47.11757659912109 79.31536102294922 C 47.11757659912109 79.66483306884766 46.83325576782227 79.94914245605469 46.48378753662109 79.94914245605469 Z" stroke="none"/>
      <path d="M 46.48378753662109 79.79914093017578 C 46.7498779296875 79.79914093017578 46.96757888793945 79.58241271972656 46.96757888793945 79.31536102294922 L 46.96757888793945 78.34778594970703 C 46.96757888793945 78.08073425292969 46.75083923339844 77.86399078369141 46.48378753662109 77.86399078369141 C 46.21673583984375 77.86399078369141 45.99999618530273 78.08073425292969 45.99999618530273 78.34778594970703 L 45.99999618530273 79.31536102294922 C 45.99999618530273 79.58241271972656 46.21673583984375 79.79914093017578 46.48378753662109 79.79914093017578 M 46.48378753662109 80.09914398193359 C 46.05160903930664 80.09914398193359 45.69999694824219 79.74754333496094 45.69999694824219 79.31536102294922 L 45.69999694824219 78.34778594970703 C 45.69999694824219 77.91560363769531 46.05160903930664 77.56399536132812 46.48378753662109 77.56399536132812 C 46.91596603393555 77.56399536132812 47.267578125 77.91560363769531 47.267578125 78.34778594970703 L 47.267578125 79.31536102294922 C 47.267578125 79.74754333496094 46.91596603393555 80.09914398193359 46.48378753662109 80.09914398193359 Z" stroke="none" fill="#666b7a"/>
    </g>
  </g>
</svg>
