<svg xmlns="http://www.w3.org/2000/svg" width="26.427" height="22.987" viewBox="0 0 26.427 22.987">
  <g id="Group_48965" data-name="Group 48965" transform="translate(-2.15 -8.45)">
    <path id="Path_26308" data-name="Path 26308" d="M15.363,8.8a12.868,12.868,0,0,0-9.1,21.962,1.147,1.147,0,0,0,.812.325h0a1.147,1.147,0,0,0,.812-.325L10.651,28a1.149,1.149,0,1,0-1.625-1.625L7.1,28.3a10.424,10.424,0,0,1-2.248-5.5H7.537a1.137,1.137,0,0,0,0-2.275H4.829A10.317,10.317,0,0,1,7.1,15.056l1.9,1.9a1.178,1.178,0,0,0,1.625,0,1.178,1.178,0,0,0,0-1.625l-1.9-1.9a10.408,10.408,0,0,1,5.47-2.275v2.708a1.137,1.137,0,0,0,2.275,0V11.156a10.6,10.6,0,0,1,9.37,9.37H23.135a1.137,1.137,0,1,0,0,2.275h2.681a9.942,9.942,0,0,1-2.194,5.5L21.7,26.375A1.149,1.149,0,0,0,20.075,28l2.762,2.762a1.147,1.147,0,0,0,.812.325h0a1.147,1.147,0,0,0,.812-.325A12.868,12.868,0,0,0,15.363,8.8Z" transform="translate(0 0)" fill="rgba(255,255,255,0.96)" stroke="#4f269f" stroke-width="0.7"/>
    <path id="Path_26309" data-name="Path 26309" d="M47.974,35.45a1.149,1.149,0,1,0-1.625-1.625l-3.141,3.141a2.863,2.863,0,0,0-1.083-.217,2.925,2.925,0,1,0,2.925,2.925,2.863,2.863,0,0,0-.217-1.083Z" transform="translate(-26.761 -18.011)" fill="rgba(255,255,255,0.96)" stroke="#4f269f" stroke-width="0.7"/>
  </g>
</svg>
