<svg xmlns="http://www.w3.org/2000/svg" width="36" height="36" viewBox="0 0 48 48">
  <g id="Group_44311" data-name="Group 44311" transform="translate(-40 -272)">
    <g id="Path_21" data-name="Path 21" transform="translate(40 272)" fill="none">
      <path d="M24,0A24,24,0,1,1,0,24,24,24,0,0,1,24,0Z" stroke="none"/>
      <path d="M 23.99998664855957 3.999996185302734 C 18.65779685974121 3.999996185302734 13.63535690307617 6.080356597900391 9.857856750488281 9.857856750488281 C 6.080356597900391 13.63535690307617 3.999996185302734 18.65779685974121 3.999996185302734 23.99998664855957 C 3.999996185302734 29.34217643737793 6.080356597900391 34.36461639404297 9.857856750488281 38.14211654663086 C 13.63535690307617 41.91961669921875 18.65779685974121 43.99997711181641 23.99998664855957 43.99997711181641 C 29.34217643737793 43.99997711181641 34.36461639404297 41.91961669921875 38.14211654663086 38.14211654663086 C 41.91961669921875 34.36461639404297 43.99997711181641 29.34217643737793 43.99997711181641 23.99998664855957 C 43.99997711181641 18.65779685974121 41.91961669921875 13.63535690307617 38.14211654663086 9.857856750488281 C 34.36461639404297 6.080356597900391 29.34217643737793 3.999996185302734 23.99998664855957 3.999996185302734 M 23.99998664855957 -3.814697265625e-06 C 37.25481796264648 -3.814697265625e-06 47.99997711181641 10.74515533447266 47.99997711181641 23.99998664855957 C 47.99997711181641 37.25481796264648 37.25481796264648 47.99997711181641 23.99998664855957 47.99997711181641 C 10.74515533447266 47.99997711181641 -3.814697265625e-06 37.25481796264648 -3.814697265625e-06 23.99998664855957 C -3.814697265625e-06 10.74515533447266 10.74515533447266 -3.814697265625e-06 23.99998664855957 -3.814697265625e-06 Z" stroke="none" fill="#fff"/>
    </g>
    <path id="Path_22" data-name="Path 22" d="M11.4,0A11.4,11.4,0,1,1,0,11.4,11.4,11.4,0,0,1,11.4,0Z" transform="translate(52.6 284.6)" fill="#00dc66"/>
  </g>
</svg>
