<svg xmlns="http://www.w3.org/2000/svg" width="23.988" height="26.524" viewBox="0 0 23.988 26.524">
  <g id="Group_44339" data-name="Group 44339" transform="translate(-82.975 -490.95)">
    <path id="Path_23654" data-name="Path 23654" d="M28.929,47.293a11.707,11.707,0,0,1-8.411-3.5,11.939,11.939,0,0,1,2.13-18.555.731.731,0,1,1,.794,1.227,12.552,12.552,0,0,0-1.877,1.48,10.465,10.465,0,1,0,14.8,0,11.043,11.043,0,0,0-1.913-1.516.731.731,0,0,1,.794-1.227,9.937,9.937,0,0,1,2.166,1.733,11.856,11.856,0,0,1,3.5,8.411,11.707,11.707,0,0,1-3.5,8.411A11.882,11.882,0,0,1,28.929,47.293Z" transform="translate(66 470.131)" fill="#666b7a" stroke="#666b7a" stroke-width="0.1"/>
    <path id="Path_23655" data-name="Path 23655" d="M48.722,26.4A.724.724,0,0,1,48,25.674V14.122a.722.722,0,1,1,1.444,0V25.674A.724.724,0,0,1,48.722,26.4Z" transform="translate(46.207 477.6)" fill="#666b7a" stroke="#666b7a" stroke-width="0.1"/>
  </g>
</svg>
