<svg xmlns="http://www.w3.org/2000/svg" width="26.847" height="16.498" viewBox="0 0 26.847 16.498">
  <g id="Group_49204" data-name="Group 49204" transform="translate(-3.8 -974.162)">
    <path id="Path_26347" data-name="Path 26347" d="M4.575,974.362a.589.589,0,0,0-.575.575v13.224a.6.6,0,0,0,.575.584.6.6,0,0,0,.575-.584V975.512H28.722a.575.575,0,1,0,0-1.15H4.575Zm2.3,2.3a.611.611,0,0,0-.575.575v12.649a.6.6,0,0,0,.575.575h23a.6.6,0,0,0,.575-.575V977.237a.6.6,0,0,0-.575-.575h-23Zm.575,1.15h6.513a7.876,7.876,0,0,0,.009,11.5H7.45Zm8.516,0h4.815a6.608,6.608,0,0,1-.018,11.5H15.984a6.608,6.608,0,0,1-.018-11.5Zm6.818,0H29.3v11.5H22.775a7.876,7.876,0,0,0,.009-11.5Z" transform="translate(0 0)" fill="#666b7a" stroke="#666b7a" stroke-width="0.4"/>
  </g>
</svg>
