<svg xmlns="http://www.w3.org/2000/svg" width="28.036" height="18.444" viewBox="0 0 28.036 18.444">
  <g id="users" transform="translate(-1.275 -11.8)">
    <path id="Path_29" data-name="Path 29" d="M14.812,23.024A5.612,5.612,0,1,0,9.2,17.412,5.608,5.608,0,0,0,14.812,23.024Zm0-9.627A4.015,4.015,0,1,1,10.8,17.412,4.021,4.021,0,0,1,14.812,13.4Z" transform="translate(-4.309 0)" fill="#666b7a"/>
    <path id="Path_30" data-name="Path 30" d="M10.5,40.8a12.7,12.7,0,0,0-8.988,3.832.8.8,0,0,0,0,1.141A.842.842,0,0,0,2.062,46a.756.756,0,0,0,.547-.228A10.927,10.927,0,0,1,10.457,42.4,11.083,11.083,0,0,1,18.3,45.773a.807.807,0,1,0,1.141-1.141A12.673,12.673,0,0,0,10.5,40.8Z" transform="translate(0 -15.769)" fill="#666b7a"/>
    <path id="Path_31" data-name="Path 31" d="M43.994,28.787A3.194,3.194,0,1,0,40.8,25.594,3.2,3.2,0,0,0,43.994,28.787Zm0-4.836a1.6,1.6,0,1,1-1.6,1.6A1.617,1.617,0,0,1,43.994,23.951Z" transform="translate(-21.492 -5.764)" fill="#666b7a"/>
    <path id="Path_32" data-name="Path 32" d="M50.543,43.388a9.673,9.673,0,0,0-9.171-2.281.8.8,0,0,0,.365,1.551A8.039,8.039,0,0,1,49.4,44.574a.842.842,0,0,0,.547.228.845.845,0,0,0,.593-1.414Z" transform="translate(-21.471 -15.756)" fill="#666b7a"/>
  </g>
</svg>
