<svg xmlns="http://www.w3.org/2000/svg" width="124" height="124" viewBox="0 0 124 124">
  <g id="Group_49342" data-name="Group 49342" transform="translate(-536 -312)">
    <g id="jessica-felicio-_cvwXhGqG-o-unsplash" transform="translate(536 312)" fill="#4f269f" stroke="#fff" stroke-width="2" opacity="0.08">
      <circle cx="62" cy="62" r="62" stroke="none"/>
      <circle cx="62" cy="62" r="61" fill="none"/>
    </g>
    <g id="Stockholm-icons-_-Shopping-_-Wallet3" data-name="Stockholm-icons-/-Shopping-/-Wallet3" transform="translate(576 352)">
      <rect id="bound" width="44" height="44" fill="none"/>
      <path id="Combined-Shape" d="M5.667,4H35a3.667,3.667,0,0,1,3.667,3.667v22A3.667,3.667,0,0,1,35,33.333H5.667A3.667,3.667,0,0,1,2,29.667v-22A3.667,3.667,0,0,1,5.667,4Z" transform="translate(1.667 3.333)" fill="#4f269f" opacity="0.3"/>
      <path id="Path" d="M30.583,11H6.75A2.75,2.75,0,0,0,4,13.75v.917h8.407a1.833,1.833,0,0,1,1.3.537l1.833,1.833a4.426,4.426,0,0,0,6.259,0L23.63,15.2a1.833,1.833,0,0,1,1.3-.537h8.407V13.75A2.75,2.75,0,0,0,30.583,11Z" transform="translate(3.333 9.167)" fill="#4f269f"/>
      <path id="Path-2" data-name="Path" d="M6.75,6A2.75,2.75,0,0,0,4,8.75v.917H33.333V8.75A2.75,2.75,0,0,0,30.583,6Z" transform="translate(3.333 5)" fill="#4f269f"/>
    </g>
  </g>
</svg>
