<svg xmlns="http://www.w3.org/2000/svg" width="24.2" height="24.2" viewBox="0 0 24.2 24.2">
  <g id="Group_44338" data-name="Group 44338" transform="translate(-72.9 -478.9)">
    <path id="Path_23651" data-name="Path 23651" d="M12.8,13.4A3.6,3.6,0,1,0,9.2,9.8,3.6,3.6,0,0,0,12.8,13.4Zm0,1.2A4.8,4.8,0,1,0,8,9.8,4.8,4.8,0,0,0,12.8,14.6Z" transform="translate(72.2 477.6)" fill="#666b7a" stroke="#666b7a" stroke-width="0.2"/>
    <path id="Path_23652" data-name="Path 23652" d="M22.655,20.462a10.8,10.8,0,1,0-17.31,0,7.93,7.93,0,0,1,2.537-2.426A11.718,11.718,0,0,1,14,16.4a11.718,11.718,0,0,1,6.118,1.636A7.93,7.93,0,0,1,22.655,20.462Zm.593,1.186a12,12,0,1,0-18.5,0,12.082,12.082,0,0,0,.949,1.02,4.682,4.682,0,0,1,.464-1.235C7.381,19.19,10.431,17.6,14,17.6s6.619,1.59,7.835,3.833a4.685,4.685,0,0,1,.464,1.235A12.106,12.106,0,0,0,23.248,21.647Z" transform="translate(71 477)" fill="#666b7a" stroke="#666b7a" stroke-width="0.2"/>
    <path id="Path_23653" data-name="Path 23653" d="M14,24.8A10.8,10.8,0,1,0,3.2,14,10.8,10.8,0,0,0,14,24.8ZM14,26A12,12,0,1,0,2,14,12,12,0,0,0,14,26Z" transform="translate(71 477)" fill="#666b7a" stroke="#666b7a" stroke-width="0.2"/>
  </g>
</svg>
