<svg id="rocket" xmlns="http://www.w3.org/2000/svg" width="23.95" height="24" viewBox="0 0 23.95 24">
  <path id="Path_23632" data-name="Path 23632" d="M1.566,8.365l3.31-3.31.117-.078a1.177,1.177,0,0,1,.623-.195l5.3.428C14.688,1.94,19.555.538,23.644,1.628A1.736,1.736,0,0,1,24.851,2.8c1.09,4.089-.312,8.995-3.621,12.85l.467,5.218v.078a1.293,1.293,0,0,1-.195.623l-3.388,3.427a.912.912,0,0,1-.662.273.663.663,0,0,1-.273-.039,1.033,1.033,0,0,1-.7-.74l-.506-4.673a17.951,17.951,0,0,1-1.986.857,1.325,1.325,0,0,1-.545.078,1.78,1.78,0,0,1-1.207-.506l-6-6a1.742,1.742,0,0,1-.428-1.752c.234-.662.545-1.324.857-1.986L2.111,10H2.033a1.033,1.033,0,0,1-.74-.7A.949.949,0,0,1,1.566,8.365Zm16.159,15.03,2.609-2.609-.35-3.855a17.822,17.822,0,0,1-2.726,2.142ZM7.173,13.31l6,6a.373.373,0,0,0,.35.078,15.62,15.62,0,0,0,5.841-3.738c3.621-3.621,5.257-8.527,4.166-12.46a.351.351,0,0,0-.234-.234,9.2,9.2,0,0,0-2.531-.312,14.378,14.378,0,0,0-9.929,4.478A15.584,15.584,0,0,0,7.1,13,.343.343,0,0,0,7.173,13.31Zm.234-4.089A18.123,18.123,0,0,1,9.548,6.457L5.694,6.145,3.085,8.754Z" transform="translate(-1.265 -1.264)" fill="#666b7a"/>
  <path id="Path_23633" data-name="Path 23633" d="M42.539,40.854a.655.655,0,0,1,.779.078c.389.312,2.414,2.336,2.648,2.57,2.492,2.492,2.492,2.492,2.375,2.959a.535.535,0,0,1-.195.312,6.5,6.5,0,0,1-4.595,1.519,8.807,8.807,0,0,1-2.025-.195.711.711,0,0,1-.545-.545c-.039-.195-.857-4.4,1.363-6.619C42.422,40.932,42.461,40.893,42.539,40.854Zm-.234,6a7.184,7.184,0,0,0,4.4-.662c-.9-.935-2.842-2.881-3.777-3.777A7.547,7.547,0,0,0,42.305,46.851Z" transform="translate(-39.824 -25.382)" fill="#666b7a"/>
  <path id="Path_23634" data-name="Path 23634" d="M21.015,17.9A3.115,3.115,0,1,1,17.9,21.015,3.124,3.124,0,0,1,21.015,17.9Zm0,4.906a1.752,1.752,0,1,0-1.752-1.752A1.745,1.745,0,0,0,21.015,22.806Z" transform="translate(-6.657 -11.422)" fill="#666b7a"/>
</svg>
