<svg xmlns="http://www.w3.org/2000/svg" width="19.011" height="23.664" viewBox="0 0 19.011 23.664">
  <g id="Group_48966" data-name="Group 48966" transform="translate(-88.8 -270.8)">
    <path id="Path_26310" data-name="Path 26310" d="M26.813,5.775l-.535-.6A.517.517,0,0,0,25.891,5H16.068A2.068,2.068,0,0,0,14,7.068V26.2a2.068,2.068,0,0,0,2.068,2.068H30.543A2.068,2.068,0,0,0,32.611,26.2V12.5a.517.517,0,0,0-.129-.344L26.925,5.9V5.775ZM31.577,26.2a1.034,1.034,0,0,1-1.034,1.034H16.068A1.034,1.034,0,0,1,15.034,26.2V7.068a1.034,1.034,0,0,1,1.034-1.034h9.59l.233.258V11.2A1.292,1.292,0,0,0,27.183,12.5H31.4l.176.2ZM30.484,11.462h-3.3a.258.258,0,0,1-.258-.258V7.458Z" transform="translate(75 266)" fill="#666b7a" stroke="#666b7a" stroke-width="0.4"/>
    <path id="Path_26311" data-name="Path 26311" d="M37.34,48H27.517a.517.517,0,1,0,0,1.034H37.34a.517.517,0,1,0,0-1.034Z" transform="translate(65.36 234.115)" fill="#666b7a" stroke="#666b7a" stroke-width="0.4"/>
    <path id="Path_26312" data-name="Path 26312" d="M37.34,61.5H27.517a.517.517,0,1,0,0,1.034H37.34a.517.517,0,1,0,0-1.034Z" transform="translate(65.36 224.105)" fill="#666b7a" stroke="#666b7a" stroke-width="0.4"/>
    <path id="Path_26313" data-name="Path 26313" d="M37.34,75H27.517a.517.517,0,1,0,0,1.034H37.34a.517.517,0,1,0,0-1.034Z" transform="translate(65.36 214.094)" fill="#666b7a" stroke="#666b7a" stroke-width="0.4"/>
    <path id="Path_26314" data-name="Path 26314" d="M27.517,32.034H32.17a.517.517,0,0,0,0-1.034H27.517a.517.517,0,1,0,0,1.034Z" transform="translate(65.36 246.721)" fill="#666b7a" stroke="#666b7a" stroke-width="0.4"/>
  </g>
</svg>
