<svg xmlns="http://www.w3.org/2000/svg" width="23.205" height="20.412" viewBox="0 0 23.205 20.412">
  <g id="Group_49183" data-name="Group 49183" transform="translate(-8.85 -966.212)">
    <path id="Path_26339" data-name="Path 26339" d="M11.235,966.362A2.242,2.242,0,0,0,9,968.6v15.922a1.963,1.963,0,0,0,1.955,1.955H29.95a1.963,1.963,0,0,0,1.955-1.955V971.67a1.964,1.964,0,0,0-1.955-1.955h-1.4v-2.793a.581.581,0,0,0-.559-.559Zm0,1.117h16.2v2.235h-16.2a1.117,1.117,0,1,1,0-2.235Zm-1.117,3.046a2.215,2.215,0,0,0,1.117.306c6.292-.005,13.308,0,18.715,0a.824.824,0,0,1,.838.838v3.352h-8.1a1.406,1.406,0,0,0-1.4,1.4v3.352a1.406,1.406,0,0,0,1.4,1.4h8.1v3.352a.824.824,0,0,1-.838.838H10.955a.824.824,0,0,1-.838-.838Zm12.57,5.613h8.1v3.911h-8.1a.267.267,0,0,1-.279-.279v-3.352A.267.267,0,0,1,22.687,976.139Zm2.793.838a1.117,1.117,0,1,0,1.117,1.117A1.117,1.117,0,0,0,25.481,976.977Z" transform="translate(0 0)" fill="#666b7a" stroke="#666b7a" stroke-width="0.3"/>
  </g>
</svg>
