<svg xmlns="http://www.w3.org/2000/svg" width="22.007" height="20.314" viewBox="0 0 22.007 20.314">
  <path id="search-alt" d="M23.032,23.054,18.2,19.11a9.43,9.43,0,0,0,1.951-5.736A9.324,9.324,0,0,0,17.377,6.7h0a9.468,9.468,0,0,0-13.345,0A9.437,9.437,0,0,0,17.3,20.124l4.914,3.984a.587.587,0,0,0,.429.156.77.77,0,0,0,.546-.234A.73.73,0,0,0,23.032,23.054ZM5.007,19.071a8.02,8.02,0,0,1-2.341-5.736,7.811,7.811,0,0,1,2.38-5.7,8.077,8.077,0,0,1,13.774,5.7A8.116,8.116,0,0,1,5.007,19.071Z" transform="translate(-1.3 -3.95)"/>
</svg>
