<svg xmlns="http://www.w3.org/2000/svg" width="21.653" height="20.906" viewBox="0 0 21.653 20.906">
  <g id="Group_49184" data-name="Group 49184" transform="translate(-76.567 -513.094)">
    <path id="Path_26340" data-name="Path 26340" d="M23.055,1.2a.747.747,0,1,0-1.18-.915L12.2,12.764a.747.747,0,0,1-1.118.07L7.428,9.179a.747.747,0,0,0-1.056,1.056l3.655,3.656a2.24,2.24,0,0,0,3.354-.211Z" transform="translate(75.009 513.094)" fill="rgba(255,255,255,0.96)"/>
    <path id="Path_26341" data-name="Path 26341" d="M1.493,5.734a2.24,2.24,0,0,1,2.24-2.24H14.186a.747.747,0,0,0,0-1.493H3.733A3.733,3.733,0,0,0,0,5.734V17.681a3.733,3.733,0,0,0,3.733,3.734H15.68a3.733,3.733,0,0,0,3.733-3.734V11.707a.747.747,0,1,0-1.493,0v5.974a2.24,2.24,0,0,1-2.24,2.24H3.733a2.24,2.24,0,0,1-2.24-2.24Z" transform="translate(76.567 512.586)" fill="rgba(255,255,255,0.96)"/>
  </g>
</svg>
